<?xml version="1.0" encoding="utf-8"?>
<!-- Generator: Adobe Illustrator 18.1.0, SVG Export Plug-In . SVG Version: 6.00 Build 0)  -->
<!DOCTYPE svg PUBLIC "-//W3C//DTD SVG 1.1//EN" "http://www.w3.org/Graphics/SVG/1.1/DTD/svg11.dtd">
<svg version="1.1" id="Слой_1" xmlns="http://www.w3.org/2000/svg" xmlns:xlink="http://www.w3.org/1999/xlink" x="0px" y="0px"
	 viewBox="0 0 38.1 52.1" enable-background="new 0 0 38.1 52.1" xml:space="preserve">
<path fill="#999999" d="M35.1,15.4c-0.1-1-1-1.8-2-1.8h-4.5v-4c0-5.2-4.3-9.5-9.5-9.5c-5.2,0-9.5,4.3-9.5,9.5v4H5
	c-1,0-1.9,0.8-2,1.8L0,49.9c0,0.6,0.1,1.1,0.5,1.5s0.9,0.6,1.5,0.6h34.1c0.6,0,1.1-0.2,1.5-0.6c0.4-0.4,0.6-1,0.5-1.5L35.1,15.4z
	 M13.5,9.5c0-3,2.5-5.5,5.5-5.5s5.5,2.5,5.5,5.5v4h-11V9.5z M4.2,48.1l2.7-30.6h2.7v3.3c-0.5,0.5-0.8,1.2-0.8,2
	c0,1.6,1.3,2.8,2.8,2.8s2.8-1.3,2.8-2.8c0-0.8-0.3-1.5-0.8-2v-3.3h11v3.3c-0.5,0.5-0.8,1.2-0.8,2c0,1.6,1.3,2.8,2.8,2.8
	c1.6,0,2.8-1.3,2.8-2.8c0-0.8-0.3-1.5-0.8-2v-3.3h2.7l2.7,30.6H4.2z"/>
</svg>
